# xmcd
#
# Track frame offsets:
#	150
#	38301
#	77269
#	114018
#	125088
#	151128
#	275328
#
# Disc length: 4435 seconds
#
# Revision: 1
# Processed by: cddbd v1.5PL3 Copyright (c) Steve Scherf et al.
# Submitted via: audiograbber 1.82.01
#
DISCID=41115107
DTITLE=Jimi Hendrix - The Blues Project Outtakes
DYEAR=1900
DGENRE=
TTITLE0=Jimi Hendrix - New Rising Sun
TTITLE1=Jimi Hendrix - Country Blues (straight mix)
TTITLE2=Jimi Hendrix - Hear My train A Comin'
TTITLE3=Jimi Hendrix - Belly Button Window
TTITLE4=Jimi Hendrix - The Things That I used To Do
TTITLE5=Jimi Hendrix - Villanova Junction Blues Jam
TTITLE6=Jimi Hendrix - 3 Little Bears- South Saturn Delta
EXTD=
EXTT0=
EXTT1=
EXTT2=
EXTT3=
EXTT4=
EXTT5=
EXTT6=
PLAYORDER=
